<svg width="97" height="99" viewBox="0 0 97 99" fill="none" xmlns="http://www.w3.org/2000/svg">
<path fill-rule="evenodd" clip-rule="evenodd" d="M69.4191 51.7452C64.0019 53.9773 58.1545 55.354 52.0386 55.7106C50.9838 55.7722 49.9211 55.8033 48.8512 55.8033C47.7813 55.8033 46.7186 55.7722 45.6638 55.7106C39.5465 55.3539 33.6978 53.9766 28.2795 51.7437C16.9089 47.0576 7.4342 38.6029 1.3512 27.9017C10.8326 11.222 28.5541 0 48.8512 0C69.1483 0 86.8698 11.222 96.3512 27.9017C90.2675 38.6041 80.7913 47.0595 69.4191 51.7452Z" fill="white"/>
<path d="M28.2787 56.0873C26.9688 55.5475 25.684 54.9576 24.4267 54.3201C20.3405 57.2493 16.8862 60.8976 14.2852 65.0599C18.7063 72.1348 25.5925 77.7245 33.8567 80.8226C37.7947 82.2989 42.0455 83.2094 46.4916 83.4453H51.1248C55.5698 83.2094 63.3826 87.6908 52.0378 98.9998C60.3031 95.9019 78.9096 72.1356 83.3313 65.0599C80.7376 60.9095 77.2955 57.2701 73.2246 54.3451C71.9818 54.9737 70.7123 55.5557 69.4183 56.0889C64.0011 58.321 58.1537 59.6976 52.0378 60.0543C50.983 60.1158 49.9203 60.147 48.8504 60.147C47.7805 60.147 46.7178 60.1158 45.663 60.0543C39.5457 59.6975 33.697 58.3203 28.2787 56.0873Z" fill="white"/>
<rect x="25.9465" y="20.7642" width="45.9093" height="16.6854" rx="8.34269" fill="#162550"/>
<ellipse cx="61.5613" cy="29.0143" rx="3.00597" ry="3.05899" fill="#04FED1"/>
<ellipse cx="48.8082" cy="70.1713" rx="3.00597" ry="3.05899" fill="#162550"/>
<ellipse cx="36.7863" cy="29.0143" rx="3.00597" ry="3.05899" fill="#04FED1"/>
<ellipse cx="36.7863" cy="70.1713" rx="3.00597" ry="3.05899" fill="#162550"/>
<ellipse cx="60.8337" cy="70.1713" rx="3.00597" ry="3.05899" fill="#162550"/>
</svg>
